<?xml version="1.0" encoding="utf-8"?>
<!-- Generator: Adobe Illustrator 22.1.0, SVG Export Plug-In . SVG Version: 6.00 Build 0)  -->
<svg version="1.1" id="Layer_1" xmlns="http://www.w3.org/2000/svg" xmlns:xlink="http://www.w3.org/1999/xlink" x="0px" y="0px"
	 viewBox="0 0 372.5 372.5" style="enable-background:new 0 0 372.5 372.5;" xml:space="preserve">
<style type="text/css">
	.st0{fill:#00B09B;}
	.st1{fill:#FFFFFF;}
</style>
<ellipse transform="matrix(0.7071 -0.7071 0.7071 0.7071 -77.1521 186.2628)" class="st0" cx="186.3" cy="186.3" rx="186.3" ry="186.3"/>
<path class="st1" d="M295.2,259.2c0,0-67.7,32.3-142.6,15C107,263.6,42.2,226.5,42.2,226.5l67.7-89.7c0,0,32.4,50.7,72.1,81.6
	C250.3,271.4,295.2,259.2,295.2,259.2 M272.8,247c0,0-31.4-13.1-46.9-74.4c-9-35.7-4.9-79.4-4.9-79.4l-79.3,21.3
	c0,0,20.7,50.5,42.2,77.1C219.2,235.3,272.8,247,272.8,247 M265.1,227.4c0,0-10.1-20.7,9.3-58.8c11.3-22.2,32.9-42.6,32.9-42.6
	l-49.9-24.5c0,0-12,35-12.9,58.1C243.1,197.5,265.1,227.4,265.1,227.4 M271.4,208.3c0,0,4.3-12.6,28-20.3c13.8-4.5,31-4,31-4
	l-10.4-30.5c0,0-19.3,9.4-29.1,18.6C274.6,187,271.4,208.3,271.4,208.3"/>
</svg>
